<svg height="200" width="200" xmlns="http://www.w3.org/2000/svg" viewBox="0 0 512 512" xml:space="preserve">
  <g stroke-width="0"/>
  <g stroke-linecap="round" stroke-linejoin="round"/>
  <path style="fill:#fff" d="m361.667 57.453 115.2 115.2-4.267 4.267h29.867V57.453z" transform="translate(1 1)"/>
  <path style="fill:#000" d="M511 185.453h-58.88l12.8-12.8L341.187 48.92H511v136.533zm-26.453-17.066h9.387v-102.4H382.147l102.4 102.4z" transform="translate(1 1)"/>
  <path style="fill:#fff" d="M214.04 57.453H67.267c-33.28 0-59.733 26.453-59.733 59.733s26.453 59.733 59.733 59.733h35.84l-4.267-4.267 115.2-115.199z" transform="translate(1 1)"/>
  <path style="fill:#000" d="M123.587 185.453h-56.32C29.72 185.453-1 154.733-1 117.187S29.72 48.92 67.267 48.92H234.52L110.787 172.653l12.8 12.8zM67.267 65.987c-28.16 0-51.2 23.04-51.2 51.2s23.04 51.2 51.2 51.2H91.16l102.4-102.4H67.267z" transform="translate(1 1)"/>
  <path style="fill:#fff" d="M7.533 117.187V448.28c0 29.013 23.893 52.907 52.907 52.907h442.027V176.92h-435.2c-33.28 0-59.734-26.453-59.734-59.733z" transform="translate(1 1)"/>
  <path style="fill:#000" d="M511 509.72H60.44C26.307 509.72-1 482.413-1 448.28V117.187h17.067c0 28.16 23.04 51.2 51.2 51.2H511V509.72zM16.067 162.413v286.72c0 23.893 19.627 43.52 44.373 43.52h433.493v-307.2H67.267c-20.48 0-38.4-9.386-51.2-23.04z" transform="translate(1 1)"/>
  <path style="fill:#000" d="M502.467 475.587h-25.6c-5.12 0-8.533-3.413-8.533-8.533 0-5.12 3.413-8.533 8.533-8.533h25.6c5.12 0 8.533 3.413 8.533 8.533 0 5.119-3.413 8.533-8.533 8.533zm-51.2 0h-25.6c-5.12 0-8.533-3.413-8.533-8.533 0-5.12 3.413-8.533 8.533-8.533h25.6c5.12 0 8.533 3.413 8.533 8.533 0 5.119-3.413 8.533-8.533 8.533zm-51.2 0h-25.6c-5.12 0-8.533-3.413-8.533-8.533 0-5.12 3.413-8.533 8.533-8.533h25.6c5.12 0 8.533 3.413 8.533 8.533 0 5.119-3.413 8.533-8.533 8.533zm-51.2 0h-25.6c-5.12 0-8.533-3.413-8.533-8.533 0-5.12 3.413-8.533 8.533-8.533h25.6c5.12 0 8.533 3.413 8.533 8.533 0 5.119-3.413 8.533-8.533 8.533zm-51.2 0h-25.6c-5.12 0-8.533-3.413-8.533-8.533 0-5.12 3.413-8.533 8.533-8.533h25.6c5.12 0 8.533 3.413 8.533 8.533 0 5.119-3.413 8.533-8.533 8.533zm-51.2 0h-25.6c-5.12 0-8.533-3.413-8.533-8.533 0-5.12 3.413-8.533 8.533-8.533h25.6c5.12 0 8.533 3.413 8.533 8.533 0 5.119-3.413 8.533-8.533 8.533zm-51.2 0h-25.6c-5.12 0-8.533-3.413-8.533-8.533 0-5.12 3.413-8.533 8.533-8.533h25.6c5.12 0 8.533 3.413 8.533 8.533 0 5.119-3.413 8.533-8.533 8.533zm-51.2 0h-25.6c-5.12 0-8.533-3.413-8.533-8.533 0-5.12 3.413-8.533 8.533-8.533h25.6c5.12 0 8.533 3.413 8.533 8.533 0 5.119-3.413 8.533-8.533 8.533zm-51.2 0h-25.6c-5.12 0-8.533-3.413-8.533-8.533 0-5.12 3.413-8.533 8.533-8.533h25.6c5.12 0 8.533 3.413 8.533 8.533 0 5.119-3.413 8.533-8.533 8.533zm-50.347-5.12c-.853 0-2.56 0-3.413-.853-8.533-4.267-17.067-10.24-23.04-17.067-3.413-3.413-2.56-8.533.853-11.947s8.533-2.56 11.947.853c5.12 5.12 11.093 10.24 17.067 12.8 4.267 1.707 5.973 6.827 4.267 11.093-1.708 3.414-4.268 5.121-7.681 5.121zM10.093 432.92c-3.413 0-6.827-2.56-8.533-5.973C-.147 420.12-1 414.147-1 407.32c0-5.12 3.413-8.533 8.533-8.533s8.533 3.413 8.533 8.533c0 5.12.853 9.387 1.707 14.507 1.707 4.267-.853 9.387-5.973 10.24 0 .853-.853.853-1.707.853zm492.374-213.333h-25.6c-5.12 0-8.533-3.413-8.533-8.533s3.413-8.533 8.533-8.533h25.6c5.12 0 8.533 3.413 8.533 8.533s-3.413 8.533-8.533 8.533zm-51.2 0h-25.6c-5.12 0-8.533-3.413-8.533-8.533s3.413-8.533 8.533-8.533h25.6c5.12 0 8.533 3.413 8.533 8.533s-3.413 8.533-8.533 8.533zm-51.2 0h-25.6c-5.12 0-8.533-3.413-8.533-8.533s3.413-8.533 8.533-8.533h25.6c5.12 0 8.533 3.413 8.533 8.533s-3.413 8.533-8.533 8.533zm-51.2 0h-25.6c-5.12 0-8.533-3.413-8.533-8.533s3.413-8.533 8.533-8.533h25.6c5.12 0 8.533 3.413 8.533 8.533s-3.413 8.533-8.533 8.533zm-51.2 0h-25.6c-5.12 0-8.533-3.413-8.533-8.533s3.413-8.533 8.533-8.533h25.6c5.12 0 8.533 3.413 8.533 8.533s-3.413 8.533-8.533 8.533zm-51.2 0h-25.6c-5.12 0-8.533-3.413-8.533-8.533s3.413-8.533 8.533-8.533h25.6c5.12 0 8.533 3.413 8.533 8.533s-3.413 8.533-8.533 8.533zm-51.2 0h-25.6c-5.12 0-8.533-3.413-8.533-8.533s3.413-8.533 8.533-8.533h25.6c5.12 0 8.533 3.413 8.533 8.533s-3.413 8.533-8.533 8.533zm-51.2 0h-25.6c-5.12 0-8.533-3.413-8.533-8.533s3.413-8.533 8.533-8.533h25.6c5.12 0 8.533 3.413 8.533 8.533s-3.413 8.533-8.533 8.533zm-51.2 0h-25.6c-5.12 0-8.533-3.413-8.533-8.533s3.413-8.533 8.533-8.533h25.6c5.12 0 8.533 3.413 8.533 8.533s-3.413 8.533-8.533 8.533zm-50.347-5.12c-.853 0-2.56 0-3.413-.853-8.533-4.267-17.067-10.24-23.04-17.067-3.413-3.413-2.56-8.533.853-11.947s8.533-2.56 11.947.853c5.12 5.12 11.093 10.24 17.067 12.8 4.267 1.707 5.973 6.827 4.267 11.093-1.708 3.414-4.268 5.121-7.681 5.121zM10.093 176.92c-3.413 0-6.827-2.56-8.533-5.973C-.147 164.12-1 158.147-1 151.32c0-10.24 1.707-19.627 5.973-28.16 2.56-4.267 6.827-6.827 11.093-4.267 4.267 1.707 5.973 6.827 4.267 11.093-2.56 6.827-4.267 13.653-4.267 21.333 0 5.12.853 9.387 1.707 14.507 1.707 4.267-.853 9.387-5.973 10.24 0 .854-.853.854-1.707.854zm17.92-62.293c-2.56 0-5.12-.853-6.827-2.56-3.413-3.413-2.56-8.533.853-11.947 7.68-6.827 16.213-11.093 25.6-13.653 5.12-1.707 9.387.853 11.093 5.12 1.707 4.267-.853 9.387-5.973 10.24-6.827 1.707-13.653 5.973-18.773 10.24-1.706 1.706-4.266 2.56-5.973 2.56zM152.6 100.12H127c-5.12 0-8.533-3.413-8.533-8.533s3.413-8.533 8.533-8.533h25.6c5.12 0 8.533 3.413 8.533 8.533s-3.413 8.533-8.533 8.533zm-51.2 0H75.8c-5.12 0-8.533-3.413-8.533-8.533s3.413-8.533 8.533-8.533h25.6c5.12 0 8.533 3.413 8.533 8.533s-3.413 8.533-8.533 8.533z" transform="translate(1 1)"/>
  <path style="fill:maroon" d="M502.467 381.72h-102.4c-28.16 0-51.2-23.04-51.2-51.2s23.04-51.2 51.2-51.2h102.4v102.4z" transform="translate(1 1)"/>
  <path style="fill:#000" d="M511 390.253H400.067c-33.28 0-59.733-26.453-59.733-59.733s26.453-59.733 59.733-59.733H511v119.466zm-110.933-102.4c-23.893 0-42.667 18.773-42.667 42.667s18.773 42.667 42.667 42.667h93.867v-85.333h-93.867z" transform="translate(1 1)"/>
  <path style="fill:#fff" d="M434.2 330.52c0 14.507-11.093 25.6-25.6 25.6-14.507 0-25.6-11.093-25.6-25.6s11.093-25.6 25.6-25.6c14.507 0 25.6 11.093 25.6 25.6z" transform="translate(1 1)"/>
  <path style="fill:#000" d="M408.6 364.653c-18.773 0-34.133-15.36-34.133-34.133s15.36-34.133 34.133-34.133c18.773 0 34.133 15.36 34.133 34.133s-15.36 34.133-34.133 34.133zm0-51.2c-9.387 0-17.067 7.68-17.067 17.067s7.68 17.067 17.067 17.067 17.067-7.68 17.067-17.067-7.68-17.067-17.067-17.067z" transform="translate(1 1)"/>
  <path style="fill:#fff" d="m472.6 176.92 4.267-4.267-163.84-163.84c-.853-.853-.853-.853-1.707 0l-163.84 163.84 4.267 4.267H472.6z" transform="translate(1 1)"/>
  <path style="fill:#000" d="M476.013 185.453h-327.68l-12.8-12.8L305.347 2.84c3.413-3.413 10.24-3.413 13.653 0l169.813 169.813-12.8 12.8zm-312.32-17.066h296.96l-148.48-148.48-148.48 148.48zm143.36-153.6z" transform="translate(1 1)"/>
  <path style="fill:maroon" d="m151.747 176.92-4.267-4.267 140.8-140.8L264.387 7.96c-.853-.853-.853-.853-1.707 0L98.84 172.653l4.267 4.267h48.64z" transform="translate(1 1)"/>
  <path style="fill:#000" d="M173.08 185.453h-72.533l-12.8-12.8L256.707 2.84c3.413-3.413 10.24-3.413 13.653 0l29.867 29.013-140.8 140.8 13.653 12.8zm-58.027-17.066H139.8L276.333 31.853l-12.8-11.947-148.48 148.481zm143.36-153.6zm10.24 0zm233.814 85.333c-5.12 0-8.533-3.413-8.533-8.533s3.413-8.533 8.533-8.533c5.12 0 8.533 3.413 8.533 8.533s-3.413 8.533-8.533 8.533zm-25.6 0h-25.6c-5.12 0-8.533-3.413-8.533-8.533s3.413-8.533 8.533-8.533h25.6c5.12 0 8.533 3.413 8.533 8.533s-3.413 8.533-8.533 8.533zm-51.2 0h-25.6c-5.12 0-8.533-3.413-8.533-8.533s3.413-8.533 8.533-8.533h25.6c5.12 0 8.533 3.413 8.533 8.533s-3.413 8.533-8.533 8.533z" transform="translate(1 1)"/>
  <path style="fill:maroon" d="m406.04 176.92 2.56-2.56-95.573-96.427h-.853l-96.427 96.427 2.56 2.56H406.04z" transform="translate(1 1)"/>
  <path style="fill:#000" d="M409.453 185.453h-194.56L203.8 174.36 307.907 70.253h4.267c2.56 0 5.12.853 6.827 2.56L420.547 174.36l-11.094 11.093zm-175.786-17.066H390.68L312.173 89.88l-78.506 78.507zm84.48-84.48c-.854.853 0 .853 0 0z" transform="translate(1 1)"/>
</svg>
