<svg height="30" width="30" xmlns="http://www.w3.org/2000/svg" viewBox="0 0 60 60" xml:space="preserve">
  <g stroke-width="0"/>
  <g stroke-linecap="round" stroke-linejoin="round"/>
  <path d="M54 29.647v-.252c3.155-2.219 5-4.954 5-7.947V13C59 5.589 47.393 0 32 0S5 5.589 5 13v2.27C1.738 17.456 0 20.116 0 23v8.448c0 3.297 2.235 6.283 6 8.609v6.391C6 54.047 17.86 60 33 60s27-5.953 27-13.552V38c0-3.185-2.086-6.059-6-8.353zM58 38c0 6.393-11.682 12-25 12a48.65 48.65 0 0 1-1.714-.035c-.169-.006-.338-.012-.507-.02a44.396 44.396 0 0 1-2.423-.176c-.139-.013-.278-.028-.416-.042-8.227-.885-15.225-3.852-18.286-7.6-.04-.05-.083-.099-.122-.15-.046-.059-.087-.119-.132-.179 1.407.6 2.938 1.13 4.581 1.575 4.439 2.92 11.346 4.592 19.019 4.592 13.554 0 23-5.252 23-9.965 0-1.389-.844-2.772-2.448-4.032.026-.071.044-.144.068-.216.034-.104.069-.207.098-.311.034-.121.062-.242.09-.364.024-.105.049-.21.069-.316.023-.123.038-.247.054-.37.014-.107.029-.213.039-.32.003-.031.009-.062.011-.093C56.05 33.377 58 35.39 58 38zM37.131 51.836l.089-.008a50.655 50.655 0 0 0 2.133-.223c.555-.07 1.106-.145 1.647-.232v5.992a48.953 48.953 0 0 1-4 .478v-5.997l.131-.01zM43 51.005c.057-.012.11-.026.166-.038.538-.114 1.07-.234 1.59-.365.068-.017.134-.036.202-.054.351-.09.699-.184 1.041-.281v5.989a41.11 41.11 0 0 1-3 .74v-5.991zm5-1.371.16-.056.224-.082a35.22 35.22 0 0 0 1.214-.465l.337-.137.066-.027v5.963c-.638.277-1.304.54-2 .786v-5.982zm4-1.698c.172-.088.338-.18.505-.27.097-.052.194-.104.289-.157.386-.216.761-.438 1.12-.666l.085-.053v5.825a19.25 19.25 0 0 1-2 1.243v-5.922zM12 46.79c.623.399 1.298.774 2 1.135v5.933a19.42 19.42 0 0 1-2-1.243V46.79zM7 18.289c.016.02.035.039.051.058.222.277.461.55.715.818.057.06.117.118.175.177.226.229.463.454.711.676.059.053.115.106.176.158.058.05.114.099.172.147v5.571c-1.285-1.376-2-2.881-2-4.446v-3.159zm5.206 4.219c.095.053.193.105.289.157.167.091.333.182.505.27v5.922a19.42 19.42 0 0 1-2-1.243V21.79l.085.053c.36.227.735.449 1.121.665zm3.197 1.522c.396.161.8.316 1.214.465.075.027.148.056.224.082l.16.056v5.981a30.747 30.747 0 0 1-2-.786v-5.963l.066.027c.11.048.223.093.336.138zm4.84 1.571c.52.131 1.052.251 1.59.365l.166.038v5.991a41.11 41.11 0 0 1-3-.74v-5.989c.342.098.69.191 1.041.281.069.018.135.037.203.054zm5.836 1.056a50.92 50.92 0 0 0 1.7.171l.089.008.131.009v5.997a48.517 48.517 0 0 1-4-.478v-5.992a46.63 46.63 0 0 0 2.08.285zM32 27c.628 0 1.249-.015 1.866-.037.044-.002.09-.001.134-.003v5.977c-.666.026-1.329.063-2 .063a52.84 52.84 0 0 1-2-.042V26.96c.044.002.09.001.134.003.617.022 1.238.037 1.866.037zm4.22-.172a50.655 50.655 0 0 0 2.133-.223c.555-.07 1.106-.145 1.647-.232v5.979c-.376.06-.744.13-1.126.182-.2.027-.398.056-.6.081-.749.092-1.51.157-2.274.216v-5.984l.131-.009c.03-.004.059-.008.089-.01zm7.537-1.227c.068-.017.134-.036.202-.054.351-.09.699-.184 1.041-.281v5.989c-.128.037-.257.073-.386.108l-.004.001c-.224.062-.45.124-.678.183-.551.142-1.111.273-1.681.395l-.251.053v-5.991c.057-.012.11-.026.166-.038a42.665 42.665 0 0 0 1.591-.365zm3.627-1.105a35.22 35.22 0 0 0 1.214-.465l.337-.137.066-.027v5.963c-.638.277-1.304.54-2 .786v-5.981l.16-.056.223-.083zm4.41-1.988c.386-.216.761-.438 1.12-.666l.085-.053v5.825a19.25 19.25 0 0 1-2 1.243v-5.922c.172-.088.338-.18.505-.27.098-.052.195-.104.29-.157zM10.066 33.893c.111.047.224.092.337.137.396.161.8.316 1.214.465.075.027.148.056.224.082l.16.056v5.981a30.747 30.747 0 0 1-2-.786v-5.963l.065.028zm5.177 1.708c.52.131 1.052.251 1.59.365l.166.038v5.991a48.584 48.584 0 0 1-1.754-.402A40.85 40.85 0 0 1 14 41.255v-5.989c.342.098.69.191 1.041.281.068.018.134.037.202.054zm5.836 1.056a50.92 50.92 0 0 0 1.7.171l.089.008.131.009v5.984a52.053 52.053 0 0 1-2.048-.191c-.326-.038-.647-.085-.969-.129-.332-.046-.655-.104-.983-.156v-5.98a46.63 46.63 0 0 0 2.08.284zM27 37c.671 0 1.336-.023 2-.049v6.007l-.063.002c-.642.024-1.286.04-1.937.04-.67 0-1.334-.036-2-.062V36.96c.044.002.09.001.134.003.617.022 1.238.037 1.866.037zm6.844 5.537c-.236.032-.47.066-.708.095a48.826 48.826 0 0 1-2.093.207l-.043.003v-6.013c.328-.026.66-.041.986-.073.33-.033.652-.082.979-.121.482-.057.968-.108 1.443-.18.2-.03.393-.071.592-.104v6.014l-.254.041c-.299.046-.599.09-.902.131zm3.939-6.734c.419-.096.844-.185 1.253-.292.328-.086.641-.188.963-.281v6.025a41.11 41.11 0 0 1-3 .74v-6.01c.266-.056.523-.122.784-.182zM42 34.592l.191-.069c.367-.131.742-.255 1.097-.396.244-.097.472-.206.711-.308v6.009c-.638.277-1.304.54-2 .786v-6.022zm4 4.266v-5.764a36.047 36.047 0 0 0 2-.663v5.184a19.42 19.42 0 0 1-2 1.243zm6-7.41c0 .761-.172 1.507-.493 2.231l-.091.188c-.297.617-.709 1.211-1.205 1.785-.06.069-.117.138-.18.206l-.031.031v-4.264c.7-.311 1.369-.639 2-.985v.808zM6 31.79l.085.053c.36.228.734.45 1.12.666.095.053.193.105.289.157.167.091.333.182.505.27V38H6.562c-.193-.127-.38-.255-.562-.385V31.79zm10 17.074c.643.271 1.31.527 2 .767v5.984a30.747 30.747 0 0 1-2-.786v-5.965zm4 1.395c.968.277 1.964.531 3 .746v5.991a41.11 41.11 0 0 1-3-.74v-5.997zm5 1.112c.156.025.318.044.476.068a50.5 50.5 0 0 0 3.009.36c.172.015.342.032.515.046v5.999a48.517 48.517 0 0 1-4-.478v-5.995zm32-33.082v3.16c0 1.565-.715 3.07-2 4.446v-5.571c.058-.048.114-.097.171-.146.06-.052.117-.106.176-.158.249-.222.486-.447.711-.676.058-.059.119-.118.175-.177.255-.268.493-.541.715-.818.017-.022.036-.041.052-.06zM32 2c14.019 0 25 4.832 25 11 0 6.393-11.682 12-25 12S7 19.393 7 13C7 6.832 17.981 2 32 2zM2 31.448v-3.16c.016.02.035.039.051.058.222.277.461.55.715.818.057.06.117.118.175.177.226.229.463.454.711.676.059.053.115.106.176.158.058.051.114.1.172.148v5.571c-1.285-1.376-2-2.881-2-4.446zm6 15v-3.16a14.128 14.128 0 0 0 2 2.026v5.579c-1.285-1.375-2-2.88-2-4.445zm23 11.51V51.96c.048.002.097.001.145.003A51.75 51.75 0 0 0 33 52c.628 0 1.249-.015 1.866-.037.044-.002.09-.001.134-.003v5.998c-.661.025-1.327.042-2 .042s-1.339-.017-2-.042zm27-14.669v3.16c0 1.565-.715 3.07-2 4.446v-5.571c.058-.048.114-.097.171-.146.06-.052.117-.106.176-.158.249-.222.486-.447.711-.676.058-.059.119-.118.175-.177.255-.268.493-.541.715-.818.017-.022.036-.041.052-.06z"/>
  <path d="m19.603 21.297 7.453-2.69.012-.103c-2.004-.868-2.854-2.203-3.191-3.371-.469-.206-.836-.515-1.063-.9a1.759 1.759 0 0 1-.166-1.424l.189-.617c.2-.647.775-1.2 1.576-1.531.272-.507.615-.97 1.022-1.382.18-.181.327-.316.446-.425l.047-.042-.007-.044a4.134 4.134 0 0 1-.057-.675C25.863 7.48 26.384 7 27.048 7c.267 0 .515.079.717.229.049.036.211.139.619.288.724.264 1.753.384 2.852.337.17-.007.342-.011.518-.011 2.464 0 5.842.301 7.317 2.809.813.331 1.398.888 1.6 1.542l.189.616c.149.484.09.99-.165 1.424-.227.386-.595.694-1.064.9-.337 1.169-1.187 2.503-3.191 3.371l.012.104 7.513 2.814C50.783 19.518 55 16.143 55 13c0-4.424-8.603-9-23-9S9 8.576 9 13c0 3.076 4.04 6.372 10.603 8.297z"/>
</svg>
