<svg width="30" height="30" viewBox="0 0 59.99 59.99" xml:space="preserve" xmlns="http://www.w3.org/2000/svg">
  <g stroke-width="0"/>
  <g stroke-linecap="round" stroke-linejoin="round"/>
  <path d="M1.005 31a1 1 0 0 0 1-1c0-15.439 12.561-28 28-28a27.84 27.84 0 0 1 17.302 6h-5.302a1 1 0 1 0 0 2h7.915a.958.958 0 0 0 .193 0h.891V1a1 1 0 1 0-2 0v5.81A29.817 29.817 0 0 0 30.005 0c-16.542 0-30 13.458-30 30a1 1 0 0 0 1 1z"/>
  <path d="M30.005 8c-12.131 0-22 9.869-22 22s9.869 22 22 22 22-9.869 22-22-9.869-22-22-22zm0 42c-11.028 0-20-8.972-20-20s8.972-20 20-20 20 8.972 20 20-8.972 20-20 20z"/>
  <path d="M30.005 15a1 1 0 0 0 1-1v-2a1 1 0 1 0-2 0v2a1 1 0 0 0 1 1zm0 30a1 1 0 0 0-1 1v2a1 1 0 1 0 2 0v-2a1 1 0 0 0-1-1zm16-14h2a1 1 0 1 0 0-2h-2a1 1 0 1 0 0 2zm-32-2h-2a1 1 0 1 0 0 2h2a1 1 0 1 0 0-2zm17-3.858V20a1 1 0 1 0-2 0v5.142c-1.72.447-3 1.999-3 3.858 0 .74.215 1.424.567 2.019l-8.274 8.274a.999.999 0 1 0 1.414 1.414l8.274-8.274a3.947 3.947 0 0 0 2.019.567c2.206 0 4-1.794 4-4 0-1.859-1.28-3.411-3-3.858zm-1 5.858c-1.103 0-2-.897-2-2s.897-2 2-2 2 .897 2 2-.897 2-2 2zM11.894 52.66a.995.995 0 0 0 .8 1.589c.31 0 .61-.13.81-.4.32-.439.23-1.069-.21-1.399a.996.996 0 0 0-1.4.21zm-4.659-6.39c-.32-.439-.95-.55-1.4-.229a1.006 1.006 0 0 0 .59 1.819 1.008 1.008 0 0 0 .81-1.59zm.389 2.18c-.41.369-.45 1-.08 1.409.19.23.47.341.75.341.23 0 .47-.08.66-.25.41-.37.45-1 .08-1.41-.359-.42-.989-.45-1.41-.09zm3.441 2.15c-.4-.37-1.04-.34-1.41.061a1 1 0 0 0 .73 1.68c.27 0 .54-.11.74-.32a.996.996 0 0 0-.06-1.41V50.6zm-5.39-6.76h-.01a.988.988 0 0 0-1.36-.37.997.997 0 0 0 .5 1.86 1 1 0 0 0 .87-1.49zm53.27-11.72h.04c.54 0 .98-.431 1-.96a.996.996 0 0 0-.96-1.04c-.55-.021-1.02.41-1.04.96s.409 1.02.96 1.04zm-57.68 1.87a1.001 1.001 0 0 0-.21-1.991.99.99 0 0 0-.89 1.09c.05.52.49.9.99.9l.11.001zm.56 2.94c.54-.11.89-.64.77-1.18a.988.988 0 0 0-1.18-.771.989.989 0 0 0-.77 1.181c.09.47.51.79.97.79.069 0 .14 0 .21-.02zm2.54 4.32c-.22-.5-.81-.73-1.32-.51-.5.22-.73.81-.51 1.319.17.37.53.601.92.601.13 0 .27-.03.4-.091.499-.219.729-.809.51-1.319zm-1.031-2.7a.988.988 0 0 0-1.25-.65 1 1 0 0 0-.65 1.261c.14.42.53.689.95.689.1 0 .21-.01.31-.04.521-.17.811-.741.64-1.26zm26.131 19.44c-.55-.011-1.01.43-1.02.979a.998.998 0 0 0 .98 1.021h.02c.55 0 .99-.431 1-.98.009-.55-.43-1.01-.98-1.02zm22.67-10.85a1 1 0 0 0 .17 1.4c.19.14.4.21.62.21.29 0 .59-.13.79-.391.34-.43.26-1.06-.18-1.399s-1.06-.26-1.4.18zm-6.301 5.94a.996.996 0 0 0-.25 1.39c.19.28.5.43.82.43a1 1 0 0 0 .57-.17c.45-.31.57-.939.25-1.39a.997.997 0 0 0-1.39-.26zm2.301-1.761a.999.999 0 0 0 .65 1.761.999.999 0 0 0 .76-1.65 1 1 0 0 0-1.41-.111zm7.029-6.88c-.47-.29-1.09-.14-1.38.32-.29.47-.15 1.09.32 1.38.17.101.35.15.53.15a1 1 0 0 0 .53-1.85zm-4.919 4.891a.987.987 0 0 0 .03 1.41.97.97 0 0 0 .69.279c.26 0 .53-.1.72-.31a.996.996 0 1 0-1.44-1.379zm8.609-16.221a1.01 1.01 0 0 0-1.13.851c-.08.55.3 1.05.85 1.13.05.01.1.01.14.01a1 1 0 0 0 .14-1.991zm-.469 2.96c-.54-.13-1.08.2-1.22.73-.13.54.2 1.08.73 1.22a1.003 1.003 0 0 0 1.21-.73 1.005 1.005 0 0 0-.72-1.22zM15.704 54.06a.996.996 0 0 0-1.37.351.995.995 0 1 0 1.71 1.02.997.997 0 0 0-.34-1.371zm41.9-15.09a.995.995 0 0 0-1.28.6.992.992 0 0 0 .93 1.341c.41 0 .8-.25.94-.66a.992.992 0 0 0-.59-1.281zm-1.079 2.8c-.49-.239-1.1-.04-1.34.46s-.03 1.101.46 1.34a1.004 1.004 0 0 0 1.34-.46 1 1 0 0 0-.46-1.34zm-29.95 16.02a.992.992 0 0 0-1.11.87c-.07.55.32 1.05.87 1.109v.011h.12c.5 0 .93-.37.99-.881a.992.992 0 0 0-.87-1.109zm-5.63-1.29a.993.993 0 0 0-1.27.62c-.18.52.1 1.09.62 1.27.11.03.22.05.33.05a.997.997 0 0 0 .32-1.94zm2.78.79c-.54-.12-1.07.21-1.2.75-.12.54.22 1.08.75 1.2.08.02.15.02.23.02.45 0 .87-.31.97-.77a.993.993 0 0 0-.75-1.2zm-5.46-1.87c-.51-.24-1.1-.021-1.33.479s-.02 1.101.48 1.33c.14.061.28.09.42.09.38 0 .74-.21.91-.579a.99.99 0 0 0-.48-1.32zm16.96 2.09c-.54.1-.9.63-.8 1.17.09.48.52.811.99.811.06 0 .12 0 .18-.011.54-.109.9-.63.8-1.17a1 1 0 0 0-1.17-.8zm2.81-.68a.987.987 0 0 0-.67 1.239 1.005 1.005 0 0 0 1.25.671c.53-.16.83-.721.67-1.25-.161-.52-.72-.82-1.25-.66zm2.73-.98c-.51.21-.75.8-.54 1.311.16.38.53.609.92.609.13 0 .26-.02.39-.069.51-.221.75-.801.54-1.311-.221-.51-.8-.75-1.31-.54zm-8.411 2.049a.998.998 0 0 0-.91 1.08c.04.521.48.92 1 .92h.08v-.01c.55-.04.96-.52.91-1.07a1.007 1.007 0 0 0-1.08-.92zm11.02-3.299c-.49.26-.67.87-.4 1.351.18.34.52.529.88.529.16 0 .32-.04.47-.13.49-.26.67-.87.4-1.35a.983.983 0 0 0-1.35-.4z"/>
  <g/>
  <g/>
  <g/>
  <g/>
  <g/>
  <g/>
  <g/>
  <g/>
  <g/>
  <g/>
  <g/>
  <g/>
  <g/>
  <g/>
  <g/>
</svg>
