<svg xmlns="http://www.w3.org/2000/svg" class="live-rate-icon" width="24px" height="24px" fill="currentColor" viewBox="0 0 72.611 72.611" xml:space="preserve">
  <g stroke-width="0"/>
  <g stroke-linecap="round" stroke-linejoin="round"/>
  <path d="M67.128 30.823C67.128 13.828 53.305 0 36.307 0c-2.862 0-5.617.423-8.247 1.157l-.062-.042c-.014.021-.025.044-.04.065C15.013 4.831 5.484 16.723 5.484 30.821a30.619 30.619 0 0 0 5.033 16.831H6.934v24.96h58.748v-24.96h-3.581a30.573 30.573 0 0 0 5.027-16.829zm-3.066-1.491H52.953c-.109-3.312-.483-6.568-1.149-9.729h9.952a27.487 27.487 0 0 1 2.306 9.729zm-3.871-12.727h-9.125c-1.115-4.104-2.68-8.033-4.724-11.715a28.014 28.014 0 0 1 13.849 11.715zM37.805 3.069c1.45.078 2.876.238 4.264.533a49.118 49.118 0 0 1 5.912 13.005H37.805V3.069zm0 16.534h10.946c.708 3.156 1.1 6.409 1.219 9.729H37.807v-9.729h-.002zm0 12.715h12.189c-.062 3.312-.405 6.569-1.062 9.731H37.805v-9.731zm0 12.724h10.406a54.075 54.075 0 0 1-.81 2.614h-9.597v-2.614zM29.902 3.763a27.926 27.926 0 0 1 4.91-.695v13.538H24.406a49.576 49.576 0 0 1 5.496-12.843zM22.62 29.332c.062-3.31.408-6.568 1.063-9.729h11.129v9.729H22.62zm12.192 2.986v9.731H23.864c-.705-3.157-1.097-6.413-1.215-9.731h12.163zM25.705 5.106a52.769 52.769 0 0 0-4.379 11.503h-8.904c3.066-5.126 7.712-9.202 13.283-11.503zM10.858 19.603h9.787a56.337 56.337 0 0 0-1.021 9.729H8.549a27.663 27.663 0 0 1 2.309-9.729zM8.551 32.318H19.66c.11 3.314.484 6.569 1.152 9.731H10.86a27.577 27.577 0 0 1-2.309-9.731zM21.55 45.042a56.2 56.2 0 0 0 .792 2.614h-8.12a28.67 28.67 0 0 1-1.798-2.614h9.126zM25 66.822v1.455H13.5V51.988h3.401v13.388H25v1.446zm-.365-21.78H34.81v2.614h-9.317c-.302-.867-.604-1.728-.858-2.614zm5.166 23.235H26.4V51.988h3.401v16.289zm9.956 0h-3.233l-5.517-16.289h3.614L38.2 64.415l3.567-12.427h3.509l-5.519 16.289zm19.357-1.455v1.455H46.756V51.988H58.74v2.893h-8.586v3.455h7.963v2.801h-7.963v4.242h8.965v1.442h-.005zm-.718-19.166h-7.849c.262-.867.516-1.733.741-2.614h8.903a28.429 28.429 0 0 1-1.795 2.614zm-6.428-5.606a56.526 56.526 0 0 0 1.02-9.731h11.074a27.519 27.519 0 0 1-2.306 9.731h-9.788z"/>
</svg>
