<svg height="24" width="24" class="manual-rate-icon" fill="currentColor" xmlns="http://www.w3.org/2000/svg" viewBox="0 0 56 56" xml:space="preserve">
  <g stroke-width="0"/>
  <g stroke-linecap="round" stroke-linejoin="round"/>
  <path d="M47.533 0H8.467C3.798 0 0 3.798 0 8.467v39.066C0 52.202 3.798 56 8.467 56h39.066C52.202 56 56 52.202 56 47.533V8.467C56 3.798 52.202 0 47.533 0zM50 27a1 1 0 1 1-2 0v-6.586L34.167 34.247c.524.791.833 1.736.833 2.753 0 2.757-2.243 5-5 5s-5-2.243-5-5c0-1.017.309-1.962.833-2.753l-10.08-10.08a4.969 4.969 0 0 1-5.506 0l-6.54 6.54-1.414-1.414 6.54-6.54A4.969 4.969 0 0 1 8 20c0-2.757 2.243-5 5-5s5 2.243 5 5a4.969 4.969 0 0 1-.833 2.753l10.08 10.08a4.969 4.969 0 0 1 5.506 0L46.586 19H40a1 1 0 1 1 0-2h10v10z"/>
</svg>
