<svg height="24px" width="24px" class="reference-currency-icon" fill="currentColor" xmlns="http://www.w3.org/2000/svg" viewBox="0 0 508.065 508.065" xml:space="preserve">
  <g stroke-width="0"/>
  <g stroke-linecap="round" stroke-linejoin="round"/>
  <path style="fill:#fff" d="m365.609 147.483 97.5-50.3-130-67-97.5 50.3zm-107 55.2-130-67-83.6 43.1 130 67.1z"/>
  <path style="fill:#800000" d="M500.409 264.583c6.9-3.6 9.6-12.1 6.1-19-3.6-6.9-12.1-9.6-19-6.1l-107.8 55.6v-45.6l120.7-62.3c6.9-3.6 9.6-12.1 6.1-19-3.6-6.9-12.1-9.6-19-6.1l-107.8 55.6v-45.7l120.7-62.3c9.6-5.1 10.8-18.6 0-25.1l-160.8-82.9c-4.1-2.1-8.9-2.1-12.9 0l-318.9 164.6c-9.7 5.3-11.1 18.6 0 25.1l160.8 82.9c4.7 2.2 9 2 12.9 0l93.8-48.4v45.7l-100.3 51.7-154.3-79.6c-6.9-3.6-15.4-.9-19 6.1-3.6 6.9-.9 15.4 6.1 19l160.8 82.9c4.4 2.1 8.7 2.1 12.9 0l93.8-48.4v45.6l-100.3 51.7-154.3-79.6c-6.9-3.6-15.4-.9-19 6.1-3.6 6.9-.9 15.4 6.1 19l160.7 83c4.1 2 8.4 2.1 12.9 0l93.8-48.4v45.7l-100.2 51.6-154.3-79.6c-6.9-3.6-15.4-.9-19 6.1-3.6 6.9-.9 15.4 6.1 19l160.8 82.9c4.4 2.1 8.7 2.1 12.9 0l318.9-164.5c6.9-3.6 9.6-12.1 6.1-19-3.6-6.9-12.1-9.6-19-6.1l-107.8 55.6v-45.7l120.7-62.1zm-325.4-18.7-130-67.1 83.6-43.1 130 67.1-83.6 43.1zm-15.6-126.1 45.4-23.4 129.9 67-45.4 23.4-129.9-67zm192 267.2-45.8 23.6-2.2 1.1v-200.4l48-24.8v200.5zm14.2-239.5-130-67.1 97.5-50.3 130 67.1-97.5 50.3z"/>
  <path style="fill:#000000" d="m389.309 90.783-53.1-27.4c-2 1-4.4 1-6.5 0l-63.6 32.8 68.5 35.3 54.7-28.2c-5.1-2.6-5.1-9.9 0-12.5zm-270.7 94.1 53.1 27.4c2-1 4.4-1 6.5 0l49.5-25.5-68.5-35.3-40.6 20.9c5.1 2.6 5.1 9.8 0 12.5z"/>
  <path style="fill:#FFC10D" d="m289.309 186.783 45.5-23.4-130-67.1-45.4 23.5zm14.2 225 2.1-1.1 45.8-23.7v-200.4l-47.9 24.7z"/>
</svg>
