<svg viewBox="0 0 21.563 21.563" xmlns="http://www.w3.org/2000/svg" width="30" height="30">
  <g stroke-width="0"/>
  <g stroke-linecap="round" stroke-linejoin="round"/>
  <path d="m18.193 19.541 -1.347 -0.042v1.389h-2.021v-1.348h-8.044l-0.042 1.348H4.718v-1.306l-1.348 -0.041a1.348 1.348 0 0 1 -1.348 -1.348V2.021A1.348 1.348 0 0 1 3.369 0.673h14.825a1.348 1.348 0 0 1 1.348 1.348v16.172a1.348 1.348 0 0 1 -1.348 1.348zm-0.673 -16.846H4.043V5.362l-0.66 -0.013v2.078h0.66v5.334h-0.674v2.063h0.674v2.695h13.477V2.695zm-0.674 14.151H4.717v-2.021h0.674v-2.063h-0.674V7.412h0.674l0.014 -2.049h-0.688V3.369h12.129v13.477zM9.812 7.117a2.695 2.695 0 1 0 0 5.391 2.695 2.695 0 0 0 0 -5.391zm6.022 0.644a0.674 0.674 0 1 0 -1.348 0 0.666 0.666 0 0 0 0.337 0.571v3.563a0.665 0.665 0 0 0 -0.337 0.571 0.674 0.674 0 0 0 1.348 0 0.668 0.668 0 0 0 -0.379 -0.599V8.36a0.669 0.669 0 0 0 0.379 -0.599zm-6.065 3.188a1.011 1.011 0 1 1 0.001 -2.022 1.011 1.011 0 0 1 -0.001 2.022z"/>
</svg>
